version 1.00

20

[0.0000,1.0446,0.0000][-0.5711,0.2933,0.7667][0.0000,0.0000,0][-0.5089,0.0536,0.0000][-0.5711,0.2933,0.7667][0.0000,0.0000,0][0.0000,0.3125,0.2800][-0.5711,0.2933,0.7667][0.0000,0.0000,0]

[0.0000,1.0446,0.0000][0.5711,0.2933,0.7667][0.0000,0.0000,0][0.0000,0.3125,0.2800][0.5711,0.2933,0.7667][0.0000,0.0000,0][0.5089,0.0536,0.0000][0.5711,0.2933,0.7667][0.0000,0.0000,0]

[0.0000,0.3125,0.2800][0.0000,-0.7342,0.6789][0.0000,0.0000,0][-0.5089,0.0536,0.0000][0.0000,-0.7342,0.6789][0.0000,0.0000,0][0.5089,0.0536,0.0000][0.0000,-0.7342,0.6789][0.0000,0.0000,0]

[0.0000,1.0446,0.0000][-0.5711,0.2933,-0.7667][0.0000,0.0000,0][0.0000,0.3125,-0.2800][-0.5711,0.2933,-0.7667][0.0000,0.0000,0][-0.5089,0.0536,0.0000][-0.5711,0.2933,-0.7667][0.0000,0.0000,0]

[0.0000,1.0446,0.0000][0.5711,0.2933,-0.7667][0.0000,0.0000,0][0.5089,0.0536,0.0000][0.5711,0.2933,-0.7667][0.0000,0.0000,0][0.0000,0.3125,-0.2800][0.5711,0.2933,-0.7667][0.0000,0.0000,0]

[0.0000,0.3125,-0.2800][0.0000,-0.7342,-0.6789][0.0000,0.0000,0][0.5089,0.0536,0.0000][0.0000,-0.7342,-0.6789][0.0000,0.0000,0][-0.5089,0.0536,0.0000][0.0000,-0.7342,-0.6789][0.0000,0.0000,0]

[-1.0000,-1.0357,0.0000][-0.6051,0.2889,0.7419][0.0000,0.0000,0][-0.3839,-0.4643,0.2800][-0.6051,0.2889,0.7419][0.0000,0.0000,0][-0.5268,-0.0446,0.0000][-0.6051,0.2889,0.7419][0.0000,0.0000,0]

[-0.5268,-0.0446,0.0000][0.4877,0.5933,0.6404][0.0000,0.0000,0][-0.3839,-0.4643,0.2800][0.4877,0.5933,0.6404][0.0000,0.0000,0][0.1250,-0.5804,0.0000][0.4877,0.5933,0.6404][0.0000,0.0000,0]

[0.1250,-0.5804,0.0000][0.2566,-0.6341,0.7294][0.0000,0.0000,0][-0.3839,-0.4643,0.2800][0.2566,-0.6341,0.7294][0.0000,0.0000,0][-1.0000,-1.0357,0.0000][0.2566,-0.6341,0.7294][0.0000,0.0000,0]

[-1.0000,-1.0357,0.0000][-0.6051,0.2889,-0.7419][0.0000,0.0000,0][-0.5268,-0.0446,0.0000][-0.6051,0.2889,-0.7419][0.0000,0.0000,0][-0.3839,-0.4643,-0.2800][-0.6051,0.2889,-0.7419][0.0000,0.0000,0]

[-0.5268,-0.0446,0.0000][0.4877,0.5933,-0.6404][0.0000,0.0000,0][0.1250,-0.5804,0.0000][0.4877,0.5933,-0.6404][0.0000,0.0000,0][-0.3839,-0.4643,-0.2800][0.4877,0.5933,-0.6404][0.0000,0.0000,0]

[0.1250,-0.5804,0.0000][0.2566,-0.6341,-0.7294][0.0000,0.0000,0][-1.0000,-1.0357,0.0000][0.2566,-0.6341,-0.7294][0.0000,0.0000,0][-0.3839,-0.4643,-0.2800][0.2566,-0.6341,-0.7294][0.0000,0.0000,0]

[0.5357,-0.0536,0.0000][-0.3033,0.6066,0.7349][0.0000,0.0000,0][0.1071,-0.2679,0.0000][-0.3033,0.6066,0.7349][0.0000,0.0000,0][0.4464,-0.4375,0.2800][-0.3033,0.6066,0.7349][0.0000,0.0000,0]

[0.1071,-0.2679,0.0000][-0.6943,-0.3803,0.6110][0.0000,0.0000,0][0.3125,-0.6429,0.0000][-0.6943,-0.3803,0.6110][0.0000,0.0000,0][0.4464,-0.4375,0.2800][-0.6943,-0.3803,0.6110][0.0000,0.0000,0]

[0.3125,-0.6429,0.0000][-0.3607,-0.6613,0.6576][0.0000,0.0000,0][1.0000,-1.0179,0.0000][-0.3607,-0.6613,0.6576][0.0000,0.0000,0][0.4464,-0.4375,0.2800][-0.3607,-0.6613,0.6576][0.0000,0.0000,0]

[1.0000,-1.0179,0.0000][0.6757,0.3253,0.6615][0.0000,0.0000,0][0.5357,-0.0536,0.0000][0.6757,0.3253,0.6615][0.0000,0.0000,0][0.4464,-0.4375,0.2800][0.6757,0.3253,0.6615][0.0000,0.0000,0]

[0.5357,-0.0536,0.0000][-0.3033,0.6066,-0.7349][0.0000,0.0000,0][0.4464,-0.4375,-0.2800][-0.3033,0.6066,-0.7349][0.0000,0.0000,0][0.1071,-0.2679,0.0000][-0.3033,0.6066,-0.7349][0.0000,0.0000,0]

[0.1071,-0.2679,0.0000][-0.6943,-0.3803,-0.6110][0.0000,0.0000,0][0.4464,-0.4375,-0.2800][-0.6943,-0.3803,-0.6110][0.0000,0.0000,0][0.3125,-0.6429,0.0000][-0.6943,-0.3803,-0.6110][0.0000,0.0000,0]

[0.3125,-0.6429,0.0000][-0.3607,-0.6613,-0.6576][0.0000,0.0000,0][0.4464,-0.4375,-0.2800][-0.3607,-0.6613,-0.6576][0.0000,0.0000,0][1.0000,-1.0179,0.0000][-0.3607,-0.6613,-0.6576][0.0000,0.0000,0]

[1.0000,-1.0179,0.0000][0.6757,0.3253,-0.6615][0.0000,0.0000,0][0.4464,-0.4375,-0.2800][0.6757,0.3253,-0.6615][0.0000,0.0000,0][0.5357,-0.0536,0.0000][0.6757,0.3253,-0.6615][0.0000,0.0000,0]
